<svg id="visual" viewBox="0 0 900 600" width="900" height="600" xmlns="http://www.w3.org/2000/svg" xmlns:xlink="http://www.w3.org/1999/xlink" version="1.1"><g stroke-width="1" stroke-linejoin="bevel"><path d="M439 301L483 379L552.5 316Z" fill="#222222" stroke="#C0C0C0"></path><path d="M483 379L543.5 366L552.5 316Z" fill="#282828" stroke="#C0C0C0"></path><path d="M552.5 316L446 196L439 301Z" fill="#181818" stroke="#C0C0C0"></path><path d="M681 321L592.5 214L552.5 316Z" fill="#191919" stroke="#C0C0C0"></path><path d="M552.5 316L592.5 214L446 196Z" fill="#373737" stroke="#C0C0C0"></path><path d="M306.5 282L366.5 424L439 301Z" fill="#282828" stroke="#C0C0C0"></path><path d="M439 301L366.5 424L483 379Z" fill="#282828" stroke="#C0C0C0"></path><path d="M483 379L587.5 469L543.5 366Z" fill="#1a1a1a" stroke="#C0C0C0"></path><path d="M423 482L587.5 469L483 379Z" fill="#373737" stroke="#C0C0C0"></path><path d="M543.5 366L681 321L552.5 316Z" fill="#161616" stroke="#C0C0C0"></path><path d="M366.5 424L423 482L483 379Z" fill="#1a1a1a" stroke="#C0C0C0"></path><path d="M446 196L360.5 201L439 301Z" fill="#2f2f2f" stroke="#C0C0C0"></path><path d="M587.5 469L642 430L543.5 366Z" fill="#1a1a1a" stroke="#C0C0C0"></path><path d="M642 430L681 321L543.5 366Z" fill="#282828" stroke="#C0C0C0"></path><path d="M360.5 201L306.5 282L439 301Z" fill="#3e3e3e" stroke="#C0C0C0"></path><path d="M681 321L674 232L592.5 214Z" fill="#3e3e3e" stroke="#C0C0C0"></path><path d="M657 89L574.5 93L592.5 214Z" fill="#181818" stroke="#C0C0C0"></path><path d="M592.5 214L574.5 93L446 196Z" fill="#3e3e3e" stroke="#C0C0C0"></path><path d="M446 196L440 74L360.5 201Z" fill="#191919" stroke="#C0C0C0"></path><path d="M587.5 469L695 469L642 430Z" fill="#1b1b1b" stroke="#C0C0C0"></path><path d="M642 430L770.5 394L681 321Z" fill="#222222" stroke="#C0C0C0"></path><path d="M681 321L795.5 231L674 232Z" fill="#181818" stroke="#C0C0C0"></path><path d="M658 600L695 469L587.5 469Z" fill="#3e3e3e" stroke="#C0C0C0"></path><path d="M574.5 93L440 74L446 196Z" fill="#181818" stroke="#C0C0C0"></path><path d="M232 173L225 297L306.5 282Z" fill="#3e3e3e" stroke="#C0C0C0"></path><path d="M240 429L303.5 510L366.5 424Z" fill="#171717" stroke="#C0C0C0"></path><path d="M366.5 424L303.5 510L423 482Z" fill="#282828" stroke="#C0C0C0"></path><path d="M423 482L564.5 600L587.5 469Z" fill="#191919" stroke="#C0C0C0"></path><path d="M232 173L306.5 282L360.5 201Z" fill="#1b1b1b" stroke="#C0C0C0"></path><path d="M306.5 282L240 429L366.5 424Z" fill="#161616" stroke="#C0C0C0"></path><path d="M225 297L240 429L306.5 282Z" fill="#222222" stroke="#C0C0C0"></path><path d="M440 74L306.5 113L360.5 201Z" fill="#171717" stroke="#C0C0C0"></path><path d="M346.5 600L453 600L423 482Z" fill="#1b1b1b" stroke="#C0C0C0"></path><path d="M674 232L657 89L592.5 214Z" fill="#3e3e3e" stroke="#C0C0C0"></path><path d="M574.5 93L564.5 0L440 74Z" fill="#373737" stroke="#C0C0C0"></path><path d="M695 469L770.5 394L642 430Z" fill="#3e3e3e" stroke="#C0C0C0"></path><path d="M674 232L765.5 67L657 89Z" fill="#171717" stroke="#C0C0C0"></path><path d="M453 600L564.5 600L423 482Z" fill="#282828" stroke="#C0C0C0"></path><path d="M695 469L811.5 508L770.5 394Z" fill="#1a1a1a" stroke="#C0C0C0"></path><path d="M240 429L244 487L303.5 510Z" fill="#222222" stroke="#C0C0C0"></path><path d="M303.5 510L346.5 600L423 482Z" fill="#161616" stroke="#C0C0C0"></path><path d="M97.5 510L244 487L240 429Z" fill="#2f2f2f" stroke="#C0C0C0"></path><path d="M306.5 113L232 173L360.5 201Z" fill="#282828" stroke="#C0C0C0"></path><path d="M809.5 312L795.5 231L681 321Z" fill="#373737" stroke="#C0C0C0"></path><path d="M249 600L346.5 600L303.5 510Z" fill="#191919" stroke="#C0C0C0"></path><path d="M770.5 394L809.5 312L681 321Z" fill="#222222" stroke="#C0C0C0"></path><path d="M564.5 600L658 600L587.5 469Z" fill="#2f2f2f" stroke="#C0C0C0"></path><path d="M657 89L564.5 0L574.5 93Z" fill="#282828" stroke="#C0C0C0"></path><path d="M440 74L367.5 0L306.5 113Z" fill="#3e3e3e" stroke="#C0C0C0"></path><path d="M564.5 0L417 0L440 74Z" fill="#1a1a1a" stroke="#C0C0C0"></path><path d="M306.5 113L247 79L232 173Z" fill="#222222" stroke="#C0C0C0"></path><path d="M417 0L367.5 0L440 74Z" fill="#161616" stroke="#C0C0C0"></path><path d="M367.5 0L247 79L306.5 113Z" fill="#1a1a1a" stroke="#C0C0C0"></path><path d="M657 89L665 0L564.5 0Z" fill="#161616" stroke="#C0C0C0"></path><path d="M765.5 67L665 0L657 89Z" fill="#2f2f2f" stroke="#C0C0C0"></path><path d="M770.5 600L811.5 508L695 469Z" fill="#181818" stroke="#C0C0C0"></path><path d="M900 422L900 291L809.5 312Z" fill="#282828" stroke="#C0C0C0"></path><path d="M244 487L249 600L303.5 510Z" fill="#373737" stroke="#C0C0C0"></path><path d="M131.5 600L249 600L244 487Z" fill="#1b1b1b" stroke="#C0C0C0"></path><path d="M795.5 231L765.5 67L674 232Z" fill="#161616" stroke="#C0C0C0"></path><path d="M96.5 270L111.5 394L225 297Z" fill="#1b1b1b" stroke="#C0C0C0"></path><path d="M225 297L111.5 394L240 429Z" fill="#191919" stroke="#C0C0C0"></path><path d="M96.5 270L225 297L92.5 212Z" fill="#2f2f2f" stroke="#C0C0C0"></path><path d="M658 600L770.5 600L695 469Z" fill="#222222" stroke="#C0C0C0"></path><path d="M92.5 212L225 297L232 173Z" fill="#3e3e3e" stroke="#C0C0C0"></path><path d="M809.5 312L900 291L795.5 231Z" fill="#373737" stroke="#C0C0C0"></path><path d="M795.5 231L900 90L765.5 67Z" fill="#1b1b1b" stroke="#C0C0C0"></path><path d="M900 422L809.5 312L770.5 394Z" fill="#282828" stroke="#C0C0C0"></path><path d="M367.5 0L232 0L247 79Z" fill="#3e3e3e" stroke="#C0C0C0"></path><path d="M96.5 76L92.5 212L232 173Z" fill="#3e3e3e" stroke="#C0C0C0"></path><path d="M900 291L900 234L795.5 231Z" fill="#1b1b1b" stroke="#C0C0C0"></path><path d="M96.5 76L232 173L247 79Z" fill="#2f2f2f" stroke="#C0C0C0"></path><path d="M765.5 67L759.5 0L665 0Z" fill="#3e3e3e" stroke="#C0C0C0"></path><path d="M900 0L759.5 0L765.5 67Z" fill="#161616" stroke="#C0C0C0"></path><path d="M900 480L900 422L811.5 508Z" fill="#3e3e3e" stroke="#C0C0C0"></path><path d="M811.5 508L900 422L770.5 394Z" fill="#1a1a1a" stroke="#C0C0C0"></path><path d="M900 600L900 480L811.5 508Z" fill="#1b1b1b" stroke="#C0C0C0"></path><path d="M0 481L97.5 510L111.5 394Z" fill="#171717" stroke="#C0C0C0"></path><path d="M111.5 394L97.5 510L240 429Z" fill="#161616" stroke="#C0C0C0"></path><path d="M0 290L111.5 394L96.5 270Z" fill="#171717" stroke="#C0C0C0"></path><path d="M97.5 510L131.5 600L244 487Z" fill="#191919" stroke="#C0C0C0"></path><path d="M232 0L96.5 76L247 79Z" fill="#1b1b1b" stroke="#C0C0C0"></path><path d="M900 234L900 90L795.5 231Z" fill="#2f2f2f" stroke="#C0C0C0"></path><path d="M770.5 600L900 600L811.5 508Z" fill="#1b1b1b" stroke="#C0C0C0"></path><path d="M0 186L0 290L92.5 212Z" fill="#161616" stroke="#C0C0C0"></path><path d="M92.5 212L0 290L96.5 270Z" fill="#181818" stroke="#C0C0C0"></path><path d="M97.5 510L0 600L131.5 600Z" fill="#373737" stroke="#C0C0C0"></path><path d="M0 290L0 406L111.5 394Z" fill="#282828" stroke="#C0C0C0"></path><path d="M96.5 76L0 186L92.5 212Z" fill="#3e3e3e" stroke="#C0C0C0"></path><path d="M232 0L106.5 0L96.5 76Z" fill="#373737" stroke="#C0C0C0"></path><path d="M0 85L0 186L96.5 76Z" fill="#222222" stroke="#C0C0C0"></path><path d="M900 90L900 0L765.5 67Z" fill="#282828" stroke="#C0C0C0"></path><path d="M0 406L0 481L111.5 394Z" fill="#191919" stroke="#C0C0C0"></path><path d="M0 0L0 85L96.5 76Z" fill="#3e3e3e" stroke="#C0C0C0"></path><path d="M0 481L0 600L97.5 510Z" fill="#181818" stroke="#C0C0C0"></path><path d="M106.5 0L0 0L96.5 76Z" fill="#282828" stroke="#C0C0C0"></path></g></svg>