<svg id="visual" viewBox="0 0 900 600" width="900" height="600" xmlns="http://www.w3.org/2000/svg" xmlns:xlink="http://www.w3.org/1999/xlink" version="1.1"><rect x="0" y="0" width="900" height="600" fill="#1b1b1b"></rect><defs><linearGradient id="grad1_0" x1="33.3%" y1="100%" x2="100%" y2="0%"><stop offset="20%" stop-color="#1b1b1b" stop-opacity="1"></stop><stop offset="80%" stop-color="#1b1b1b" stop-opacity="1"></stop></linearGradient></defs><defs><linearGradient id="grad2_0" x1="0%" y1="100%" x2="66.7%" y2="0%"><stop offset="20%" stop-color="#1b1b1b" stop-opacity="1"></stop><stop offset="80%" stop-color="#1b1b1b" stop-opacity="1"></stop></linearGradient></defs><g transform="translate(900, 600)"><path d="M-351.5 0C-336.3 -57.6 -321 -115.2 -293.6 -169.5C-266.2 -223.8 -226.7 -274.7 -175.8 -304.4C-124.8 -334.2 -62.4 -342.9 0 -351.5L0 0Z" fill="#c0c0c0"></path></g><g transform="translate(0, 0)"><path d="M351.5 0C342.5 61.7 333.4 123.4 304.4 175.8C275.5 228.1 226.6 271 172.5 298.8C118.4 326.5 59.2 339 0 351.5L0 0Z" fill="#c0c0c0"></path></g></svg>