<svg id="visual" viewBox="0 0 900 600" width="900" height="600" xmlns="http://www.w3.org/2000/svg" xmlns:xlink="http://www.w3.org/1999/xlink" version="1.1"><rect x="0" y="0" width="900" height="600" fill="#c0c0c0"></rect><defs><linearGradient id="grad1_0" x1="33.3%" y1="100%" x2="100%" y2="0%"><stop offset="20%" stop-color="#c0c0c0" stop-opacity="1"></stop><stop offset="80%" stop-color="#c0c0c0" stop-opacity="1"></stop></linearGradient></defs><defs><linearGradient id="grad2_0" x1="0%" y1="100%" x2="66.7%" y2="0%"><stop offset="20%" stop-color="#c0c0c0" stop-opacity="1"></stop><stop offset="80%" stop-color="#c0c0c0" stop-opacity="1"></stop></linearGradient></defs><g transform="translate(900, 600)"><path d="M-351.5 0C-342.5 -61.8 -333.6 -123.7 -304.4 -175.8C-275.3 -227.9 -226.1 -270.2 -172 -297.9C-117.9 -325.6 -59 -338.6 0 -351.5L0 0Z" fill="#1b1b1b"></path></g><g transform="translate(0, 0)"><path d="M351.5 0C335.3 57.1 319.1 114.2 291.9 168.5C264.6 222.8 226.3 274.4 175.8 304.4C125.3 334.5 62.6 343 0 351.5L0 0Z" fill="#1b1b1b"></path></g></svg>