<?xml version="1.0" standalone="no"?>
<!DOCTYPE svg PUBLIC "-//W3C//DTD SVG 20010904//EN"
 "http://www.w3.org/TR/2001/REC-SVG-20010904/DTD/svg10.dtd">
<svg version="1.0" xmlns="http://www.w3.org/2000/svg"
 width="273.000000pt" height="85.000000pt" viewBox="0 0 273.000000 85.000000"
 preserveAspectRatio="xMidYMid meet">
<metadata>
Created by potrace 1.16, written by Peter Selinger 2001-2019
</metadata>
<g transform="translate(0.000000,85.000000) scale(0.100000,-0.100000)"
fill="#000000" stroke="none">
<path d="M0 425 l0 -425 1365 0 1365 0 0 425 0 425 -1365 0 -1365 0 0 -425z
m610 310 c0 -19 6 -26 28 -30 15 -3 54 -19 86 -35 55 -27 61 -28 77 -14 25 22
45 8 24 -16 -16 -17 -15 -20 5 -48 13 -17 31 -54 40 -84 15 -44 23 -54 44 -56
30 -4 36 -32 7 -32 -24 0 -37 -17 -45 -61 -4 -21 -18 -54 -32 -74 -24 -36 -24
-38 -8 -56 12 -13 14 -23 7 -30 -7 -7 -14 -5 -23 6 -17 20 -23 19 -65 -9 -19
-13 -58 -30 -85 -37 -43 -11 -50 -16 -50 -37 0 -30 -24 -24 -28 6 -3 17 -10
22 -32 22 -15 0 -53 13 -85 30 -46 24 -59 27 -75 18 -27 -17 -37 -2 -15 22 17
19 16 20 -9 50 -14 17 -33 56 -42 86 -13 46 -19 54 -40 54 -15 0 -24 6 -24 15
0 9 9 15 24 15 20 0 25 7 31 38 3 20 19 60 35 88 26 47 27 52 12 67 -22 22 -8
33 22 17 22 -11 28 -10 52 9 15 12 51 28 81 37 45 13 53 19 53 40 0 15 6 24
15 24 9 0 15 -9 15 -25z m643 -44 c14 -6 38 -27 54 -47 24 -32 28 -47 28 -98
0 -42 -6 -73 -21 -101 -23 -44 -49 -61 -106 -70 l-38 -6 0 -104 0 -105 -60 0
-60 0 0 170 0 170 63 0 c94 0 109 6 105 44 l-3 31 -82 3 -83 3 0 59 0 60 89 0
c49 0 101 -4 114 -9z m215 -68 c3 -19 -1 -23 -22 -23 -16 0 -26 -6 -26 -15 0
-8 9 -15 20 -15 15 0 20 -7 20 -25 0 -18 -5 -25 -20 -25 -29 0 -27 -38 3 -42
14 -2 22 -10 22 -23 0 -16 -8 -21 -42 -23 l-43 -3 0 111 0 111 43 -3 c35 -2
43 -7 45 -25z m108 2 c8 -13 13 -29 9 -35 -9 -15 -35 -12 -35 5 0 16 -12 20
-23 9 -4 -4 9 -24 28 -46 38 -42 44 -71 19 -106 -30 -43 -84 -19 -84 37 0 14
6 21 20 21 13 0 20 -7 20 -20 0 -11 5 -20 10 -20 20 0 9 33 -20 60 -32 30 -41
85 -18 108 20 20 56 14 74 -13z m342 2 c8 -6 12 -37 12 -87 0 -65 -3 -80 -20
-95 -16 -15 -26 -17 -48 -9 -26 9 -27 12 -30 94 -3 76 -1 87 18 102 20 17 42
15 68 -5z m142 -88 c0 -108 0 -110 -22 -107 -17 2 -25 14 -34 48 l-12 45 -1
-47 c-1 -36 -5 -48 -16 -48 -12 0 -15 18 -15 105 0 98 1 105 20 105 14 0 21
-9 26 -36 7 -41 24 -28 24 19 0 17 5 27 15 27 12 0 15 -19 15 -111z m400 -159
c0 -7 -187 -10 -540 -10 -353 0 -540 3 -540 10 0 7 187 10 540 10 353 0 540
-3 540 -10z"/>
<path d="M719 386 l-16 -35 44 -43 44 -43 19 24 c19 26 40 86 40 115 0 13 -11
16 -58 16 -56 0 -58 -1 -73 -34z"/>
<path d="M648 323 c-27 -4 -28 -6 -28 -74 0 -51 3 -69 14 -69 23 0 80 22 109
43 l29 20 -43 43 c-24 24 -46 43 -49 43 -3 -1 -17 -4 -32 -6z"/>
</g>
</svg>
